<?xml version="1.0" encoding="iso-8859-1"?>
<!-- Uploaded to: SVG Repo, www.svgrepo.com, Generator: SVG Repo Mixer Tools -->
<!DOCTYPE svg PUBLIC "-//W3C//DTD SVG 1.1//EN" "http://www.w3.org/Graphics/SVG/1.1/DTD/svg11.dtd">
<svg fill="#000000" version="1.1" id="Capa_1" xmlns="http://www.w3.org/2000/svg" xmlns:xlink="http://www.w3.org/1999/xlink" 
	 width="800px" height="800px" viewBox="0 0 80 80" xml:space="preserve">
<g>
	<g>
		<polygon points="35.004,55.753 35.004,66.061 40.828,60.238 		"/>
		<path d="M52.039,59.282c0.029-0.043,0.048-0.093,0.086-0.13c0.121-0.121,0.27-0.191,0.423-0.237l7.298-5.271L47.75,43.023
			l-9.511,8.319l2.076,1.582c0.438,0.334,0.523,0.962,0.189,1.401c-0.335,0.438-0.96,0.523-1.402,0.189l-2.399-1.828l-1.124,0.982
			l11.724,9.031L52.039,59.282z M43.251,49.572h9.581c0.553,0,1,0.447,1,1s-0.447,1-1,1h-9.581c-0.553,0-1-0.447-1-1
			S42.699,49.572,43.251,49.572z M42.251,55.294c0-0.553,0.447-1,1-1h9.581c0.553,0,1,0.447,1,1c0,0.554-0.447,1-1,1h-9.581
			C42.699,56.294,42.251,55.848,42.251,55.294z"/>
		<path d="M40,0C17.909,0,0,17.909,0,40c0,22.092,17.909,40,40,40c22.092,0,40-17.908,40-40C80,17.909,62.092,0,40,0z
			 M34.004,27.145c3.263,0,5.918,2.655,5.918,5.918c0,3.264-2.655,5.919-5.918,5.919c-3.263,0-5.918-2.655-5.918-5.919
			C28.086,29.8,30.742,27.145,34.004,27.145z M62.449,68.477c0,0.129-0.026,0.26-0.077,0.381c-0.103,0.246-0.296,0.439-0.541,0.541
			c-0.122,0.052-0.252,0.078-0.382,0.078H34.004c-0.13,0-0.26-0.026-0.382-0.078c-0.245-0.102-0.439-0.295-0.541-0.541
			c-0.051-0.121-0.077-0.252-0.077-0.381V54.311c0-0.103,0.016-0.201,0.044-0.295c-0.012-0.037-0.011-0.074-0.018-0.111
			c-0.006-0.033-0.013-0.063-0.016-0.098c-0.009-0.104-0.004-0.211,0.021-0.313c0.002-0.011,0.001-0.021,0.004-0.03
			c0.03-0.111,0.086-0.218,0.155-0.316c0.008-0.01,0.009-0.023,0.018-0.034c0.014-0.019,0.034-0.025,0.049-0.042
			c0.029-0.033,0.051-0.07,0.085-0.102l1.733-1.517l-4.239-3.229c-0.248-0.189-0.394-0.483-0.394-0.797v-2.363l-4.917,5.873
			l2.503,5.658c0.057,0.127,0.086,0.266,0.086,0.404v11.479c0,0.554-0.447,1-1,1h-8.263c-0.549,0-0.994-0.44-1-0.989L17.659,48.73
			c-0.002-0.213,0.063-0.42,0.188-0.592l2.59-3.607l-3.91-4.52c-0.238-0.273-0.309-0.657-0.183-0.999
			c0.125-0.341,0.426-0.588,0.785-0.644l8.854-1.377c0.29-0.044,0.582,0.039,0.804,0.229c0.219,0.188,0.346,0.459,0.35,0.746
			l4.888,3.524c0.072,0.051,0.137,0.11,0.192,0.177c0,0,0,0,0,0.001c0,0,0,0,0.001,0.001l0.001,0.001c0,0,0,0,0,0.001
			c0.028,0.034,0.055,0.07,0.078,0.108c0.001,0,0.001,0.001,0.001,0.001c0,0.001,0,0.001,0.001,0.001c0,0,0.001,0.003,0.001,0.002
			c0,0.001,0,0.001,0,0.001c0.088,0.143,0.141,0.309,0.147,0.482c0,0,0,0,0,0.002c0.001,0.015,0.001,0.027,0.001,0.043v4.615
			l4.17,3.178l10.478-9.166c0.377-0.33,0.938-0.33,1.317,0.002l13.696,12.029c0.025,0.022,0.037,0.057,0.062,0.082
			c0.027,0.029,0.063,0.049,0.089,0.082c0.021,0.03,0.026,0.066,0.045,0.098c0.03,0.056,0.055,0.107,0.075,0.168
			c0.025,0.074,0.041,0.146,0.048,0.224c0.004,0.033,0.021,0.063,0.021,0.099V68.477z"/>
		<polygon points="60.449,66.061 60.449,55.677 54.418,60.031 		"/>
		<path d="M47.87,64.762c-0.033,0.023-0.071,0.033-0.104,0.053c-0.033,0.019-0.063,0.035-0.098,0.05
			c-0.124,0.052-0.252,0.087-0.383,0.087h-0.001h-0.001c-0.135,0-0.268-0.038-0.396-0.094c-0.035-0.017-0.065-0.034-0.101-0.055
			c-0.037-0.021-0.078-0.033-0.113-0.061l-4.249-3.271l-6.006,6.006h22.616l-6.259-6.26L47.87,64.762z"/>
	</g>
</g>
</svg>